# xmcd
#
# Track frame offsets:
#	150
#	4582
#	36792
#	55735
#	82991
#	105946
#	135930
#	157806
#	178989
#	206832
#	231921
#
# Disc length: 3405 seconds
#
# Revision: 2416787449
# Processed by: cddbd v1.5.2PL0 Copyright (c) Steve Scherf et al.
# Submitted via: EZCDAudioConverter 8.0.2.1
#
DISCID=7d0d4b0b
DTITLE=Tấn Sơn - st. Trịnh Công Sơn. Ru
DYEAR=2008
DGENRE=World Pop
TTITLE0=Tấn Sơn - Lời dẫn
TTITLE1=Tấn Sơn - Ru tình
TTITLE2=Trịnh Vĩnh Trinh - Tôi ru em ngủ
TTITLE3=Tấn Sơn - Ru em từng ngón xuân nồng
TTITLE4=Tấn Sơn - Tuổi đá buồn
TTITLE5=Bích Ngà - Ru ta ngậm ngùi
TTITLE6=Tấn Sơn - Lời thiên thu gọi
TTITLE7=Trịnh Vĩnh Trinh - Ru em
TTITLE8=Tấn Sơn - Tình yêu tìm thấy
TTITLE9=Tấn Sơn - Ru đời đã mất
TTITLE10=Bích Ngà - Xa dấu mặt trời
EXTD=
EXTT0=
EXTT1=
EXTT2=
EXTT3=
EXTT4=
EXTT5=
EXTT6=
EXTT7=
EXTT8=
EXTT9=
EXTT10=
PLAYORDER=
